<svg width="19" height="19" viewBox="0 0 19 19" fill="none" xmlns="http://www.w3.org/2000/svg">
<path id="instagram" d="M9.36133 0.5C6.91895 0.5 6.61183 0.51125 5.6522 0.554C4.69258 0.599 4.03895 0.74975 3.46633 0.9725C2.86568 1.19842 2.32163 1.5528 1.8722 2.01088C1.41441 2.46053 1.06007 3.00452 0.833828 3.605C0.611078 4.1765 0.459203 4.83125 0.415328 5.7875C0.372578 6.74937 0.361328 7.05538 0.361328 9.50113C0.361328 11.9446 0.372578 12.2506 0.415328 13.2103C0.460328 14.1688 0.611078 14.8224 0.833828 15.395C1.06445 15.9868 1.37158 16.4885 1.8722 16.9891C2.3717 17.4897 2.87345 17.798 3.4652 18.0275C4.03895 18.2502 4.69145 18.4021 5.64995 18.446C6.6107 18.4888 6.9167 18.5 9.36133 18.5C11.806 18.5 12.1108 18.4888 13.0716 18.446C14.029 18.401 14.6848 18.2502 15.2575 18.0275C15.8577 17.8015 16.4014 17.4471 16.8505 16.9891C17.3511 16.4885 17.6582 15.9868 17.8888 15.395C18.1105 14.8224 18.2623 14.1688 18.3073 13.2103C18.3501 12.2506 18.3613 11.9446 18.3613 9.5C18.3613 7.05538 18.3501 6.74938 18.3073 5.78863C18.2623 4.83125 18.1105 4.1765 17.8888 3.605C17.6626 3.0045 17.3083 2.46051 16.8505 2.01088C16.4012 1.55264 15.8571 1.19823 15.2563 0.9725C14.6826 0.74975 14.0278 0.597875 13.0705 0.554C12.1097 0.51125 11.8048 0.5 9.35908 0.5H9.36245H9.36133ZM8.5547 2.12225H9.36245C11.7655 2.12225 12.0501 2.13013 12.9985 2.174C13.876 2.21338 14.353 2.36075 14.6702 2.48338C15.0898 2.6465 15.3902 2.84225 15.7052 3.15725C16.0202 3.47225 16.2148 3.7715 16.378 4.19225C16.5017 4.50838 16.648 4.98538 16.6873 5.86288C16.7312 6.81125 16.7402 7.09588 16.7402 9.49775C16.7402 11.8996 16.7312 12.1854 16.6873 13.1338C16.648 14.0113 16.5006 14.4871 16.378 14.8044C16.2337 15.1952 16.0034 15.5485 15.7041 15.8383C15.3891 16.1533 15.0898 16.3479 14.6691 16.511C14.3541 16.6348 13.8771 16.781 12.9985 16.8215C12.0501 16.8643 11.7655 16.8744 9.36245 16.8744C6.95945 16.8744 6.6737 16.8643 5.72533 16.8215C4.84783 16.781 4.37195 16.6348 4.0547 16.511C3.66376 16.3669 3.3101 16.137 3.0197 15.8383C2.72017 15.548 2.48952 15.1944 2.3447 14.8033C2.22208 14.4871 2.0747 14.0101 2.03533 13.1326C1.99258 12.1843 1.98358 11.8996 1.98358 9.4955C1.98358 7.0925 1.99258 6.809 2.03533 5.86063C2.07583 4.98313 2.22208 4.50612 2.34583 4.18887C2.50895 3.76925 2.7047 3.46888 3.0197 3.15388C3.3347 2.83888 3.63395 2.64425 4.0547 2.48113C4.37195 2.35738 4.84783 2.21113 5.72533 2.17063C6.55558 2.13238 6.87733 2.12113 8.5547 2.12V2.12225ZM14.1662 3.61625C14.0244 3.61625 13.8839 3.64419 13.7529 3.69846C13.6219 3.75274 13.5028 3.83229 13.4025 3.93257C13.3022 4.03286 13.2227 4.15192 13.1684 4.28295C13.1141 4.41398 13.0862 4.55442 13.0862 4.69625C13.0862 4.83808 13.1141 4.97852 13.1684 5.10955C13.2227 5.24058 13.3022 5.35964 13.4025 5.45993C13.5028 5.56021 13.6219 5.63977 13.7529 5.69404C13.8839 5.74832 14.0244 5.77625 14.1662 5.77625C14.4526 5.77625 14.7273 5.66247 14.9299 5.45993C15.1324 5.25739 15.2462 4.98268 15.2462 4.69625C15.2462 4.40982 15.1324 4.13511 14.9299 3.93257C14.7273 3.73004 14.4526 3.61625 14.1662 3.61625ZM9.36245 4.8785C8.74941 4.86894 8.14058 4.98142 7.57143 5.20941C7.00227 5.4374 6.48416 5.77633 6.04725 6.20648C5.61034 6.63662 5.26336 7.14939 5.02652 7.71492C4.78969 8.28045 4.66772 8.88744 4.66772 9.50056C4.66772 10.1137 4.78969 10.7207 5.02652 11.2862C5.26336 11.8517 5.61034 12.3645 6.04725 12.7946C6.48416 13.2248 7.00227 13.5637 7.57143 13.7917C8.14058 14.0197 8.74941 14.1322 9.36245 14.1226C10.5758 14.1037 11.7331 13.6084 12.5844 12.7437C13.4358 11.8789 13.913 10.7141 13.913 9.50056C13.913 8.28706 13.4358 7.12221 12.5844 6.25747C11.7331 5.39272 10.5758 4.89743 9.36245 4.8785ZM9.36245 6.49963C10.1582 6.49963 10.9214 6.81574 11.484 7.37841C12.0467 7.94109 12.3628 8.70425 12.3628 9.5C12.3628 10.2957 12.0467 11.0589 11.484 11.6216C10.9214 12.1843 10.1582 12.5004 9.36245 12.5004C8.5667 12.5004 7.80355 12.1843 7.24087 11.6216C6.67819 11.0589 6.36208 10.2957 6.36208 9.5C6.36208 8.70425 6.67819 7.94109 7.24087 7.37841C7.80355 6.81574 8.5667 6.49963 9.36245 6.49963Z" fill="white"/>
</svg>
